<?xml version="1.0" encoding="utf-8"?>
<!-- Generator: Adobe Illustrator 19.0.0, SVG Export Plug-In . SVG Version: 6.00 Build 0)  -->
<svg version="1.1" id="Layer_1" xmlns="http://www.w3.org/2000/svg" xmlns:xlink="http://www.w3.org/1999/xlink" x="0px" y="0px"
	 viewBox="0 0 60 60" style="enable-background:new 0 0 60 60;" xml:space="preserve">
<style type="text/css">
	.st0{fill:none;}
	.st1{fill:#FFCA05;}
	.st2{fill:#F37C20;}
	.st3{fill:#FFFFFF;}
</style>
<g id="XMLID_23_">
	<g id="XMLID_100_">
		<path id="XMLID_22_" class="st0" d="M29.5,23.3c0.4,0.4,0.8,0.7,1.2,1.1c1.4,1.1,3.1,2,4.9,2.6c2,0.7,4,1,6.2,1
			c1.6,0,3.3-0.2,4.8-0.6c0,0,1.9-0.4,3.6-1.3c1.7-0.9,3.1-2.1,3.3-2.3c1.2-1.1,2.1-2.2,2.7-3.5c0.6-1.3,0.9-2.6,0.9-4
			c0-3-1.5-5.8-4.3-8c-1.4-1.1-3.1-2-4.9-2.6c-2-0.7-4-1-6.2-1c-2.1,0-4.2,0.3-6.2,1c-1.9,0.6-3.5,1.5-4.9,2.6
			c-1.8,1.5-3.1,3.2-3.8,5.1c1.9,2,3,4.5,3,7.1C29.9,21.5,29.8,22.4,29.5,23.3z"/>
		<path id="XMLID_21_" class="st0" d="M27.1,19.7c-0.1-0.7-0.3-1.4-0.6-2C26.7,18.4,26.9,19,27.1,19.7z"/>
		<path id="XMLID_20_" class="st0" d="M23.9,14.3C23.9,14.3,23.8,14.3,23.9,14.3c-1.2-0.9-2.5-1.6-4-2.1c-1.6-0.5-3.2-0.8-4.9-0.8
			c-1.7,0-3.4,0.3-4.9,0.8c-1.5,0.5-2.8,1.2-3.9,2.1C4,16,2.8,18.2,2.8,20.5c0,1.1,0.2,2.1,0.7,3.1c0.5,1,1.2,1.9,2.1,2.8
			c0.1,0.1,1.3,1.2,2.5,1.8c1.4,0.7,3,1,3,1c1.2,0.3,2.5,0.5,3.8,0.5c1.7,0,3.4-0.3,4.9-0.8c1.5-0.5,2.8-1.2,3.9-2.1
			c1.1-0.9,1.9-1.9,2.5-2.9c-1.7-2.2-2.6-4.7-2.6-7.5C23.7,15.6,23.8,15,23.9,14.3z"/>
		<path id="XMLID_19_" class="st1" d="M41.8,1.9c-7.9,0-14.6,4-17.1,9.6c0.8,0.6,1.6,1.2,2.2,1.9c0.7-1.9,1.9-3.6,3.8-5.1
			c1.4-1.1,3.1-2,4.9-2.6c2-0.7,4-1,6.2-1c2.1,0,4.2,0.3,6.2,1c1.9,0.6,3.5,1.5,4.9,2.6c2.8,2.2,4.3,5,4.3,8c0,1.4-0.3,2.7-0.9,4
			c-0.6,1.3-1.5,2.5-2.7,3.5c-0.2,0.2-1.6,1.4-3.3,2.3c-1.6,0.8-3.6,1.3-3.6,1.3c-1.5,0.4-3.2,0.6-4.8,0.6c-2.1,0-4.2-0.3-6.2-1
			c-1.9-0.6-3.5-1.5-4.9-2.6c-0.4-0.3-0.8-0.7-1.2-1.1c-0.3,0.9-0.7,1.8-1.2,2.6c3.3,3,8.2,4.8,13.6,4.8c1.9,0,3.8-0.2,5.5-0.7l0,10
			c0,0,7.2-13.4,8.1-14.2c2.8-2.5,4.6-5.9,4.6-9.6C60,8.4,51.9,1.9,41.8,1.9z"/>
		<path id="XMLID_18_" class="st1" d="M23.9,14.3c-0.1,0.7-0.2,1.4-0.2,2.1c0,2.7,1,5.3,2.6,7.5c0.6-1.1,0.8-2.2,0.8-3.3
			c0-0.3,0-0.5,0-0.8c-0.3-0.7-0.5-1.3-0.6-2C26,16.4,25.1,15.3,23.9,14.3z"/>
		<path id="XMLID_17_" class="st2" d="M26.6,17.7c0.3,0.7,0.5,1.3,0.6,2c0.5,1.3,1.3,2.5,2.4,3.6c0.3-0.9,0.4-1.8,0.4-2.8
			c0-2.7-1.1-5.1-3-7.1c-0.3,1-0.5,2-0.5,3C26.5,16.8,26.5,17.2,26.6,17.7z"/>
		<path id="XMLID_16_" class="st2" d="M26.3,23.8c-0.6,1.1-1.4,2.1-2.5,2.9c-1.1,0.9-2.4,1.6-3.9,2.1c-1.6,0.5-3.2,0.8-4.9,0.8
			c-1.3,0-2.6-0.2-3.8-0.5c0,0-1.6-0.3-3-1c-1.2-0.6-2.3-1.7-2.5-1.8c-0.9-0.8-1.6-1.8-2.1-2.8c-0.5-1-0.7-2-0.7-3.1
			c0-2.3,1.2-4.5,3.3-6.2c1.1-0.9,2.4-1.6,3.9-2.1c1.6-0.5,3.2-0.8,4.9-0.8c1.7,0,3.4,0.3,4.9,0.8c1.5,0.5,2.8,1.2,3.9,2.1
			c0,0,0,0,0,0c0.2-1,0.5-1.9,0.9-2.8c-2.6-1.8-6-2.9-9.8-2.9c-8.3,0-15,5.3-15,11.9c0,3,1.4,5.8,3.8,7.9c0.8,0.7,6.7,11.7,6.7,11.7
			l0-8.2c1.4,0.4,2.9,0.6,4.5,0.6c5.8,0,10.8-2.6,13.3-6.5C27.6,25.3,26.9,24.6,26.3,23.8z"/>
		<path id="XMLID_15_" class="st2" d="M27.1,19.7c0,0.3,0,0.5,0,0.8c0,1.1-0.3,2.3-0.8,3.3c0.6,0.8,1.2,1.5,2,2.1
			c0.5-0.8,1-1.7,1.2-2.6C28.5,22.2,27.6,21,27.1,19.7z"/>
		<path id="XMLID_14_" class="st1" d="M26.6,17.7c-0.1-0.4-0.1-0.9-0.1-1.3c0-1,0.2-2,0.5-3c-0.7-0.7-1.4-1.3-2.2-1.9
			c-0.4,0.9-0.7,1.8-0.9,2.8C25.1,15.3,26,16.4,26.6,17.7z"/>
	</g>
	<g id="XMLID_54_">
		<path id="XMLID_55_" class="st3" d="M3.1,52.5c0,0.4,0.1,0.8,0.2,1.2c0.1,0.4,0.3,0.7,0.6,1c0.3,0.3,0.6,0.5,1,0.7
			c0.4,0.2,0.9,0.3,1.4,0.3c0.5,0,1-0.1,1.4-0.3s0.7-0.5,1-0.8v2.5c-0.3,0.3-0.7,0.5-1.2,0.7c-0.5,0.2-1,0.3-1.5,0.3
			c-0.7,0-1.4-0.1-2-0.4c-0.6-0.3-1.2-0.6-1.7-1.1c-0.5-0.5-0.9-1.1-1.2-1.8c-0.3-0.7-0.4-1.5-0.4-2.4c0-0.9,0.2-1.7,0.5-2.4
			c0.3-0.7,0.7-1.3,1.2-1.7c0.5-0.5,1.1-0.8,1.7-1C4.6,47.1,5.2,47,5.8,47c0.4,0,0.8,0.1,1.4,0.2s1,0.4,1.5,0.8v2.5
			c-0.3-0.3-0.6-0.6-1-0.8c-0.4-0.2-0.9-0.3-1.4-0.3c-0.5,0-0.9,0.1-1.3,0.3c-0.4,0.2-0.7,0.4-1,0.7s-0.5,0.6-0.6,1
			C3.2,51.7,3.1,52.1,3.1,52.5z M9.3,44.6c0-0.3,0.1-0.6,0.4-0.9c0.2-0.2,0.5-0.4,0.9-0.4c0.3,0,0.6,0.1,0.9,0.3
			c0.2,0.2,0.4,0.5,0.4,0.9v12.3c0,0.4-0.2,0.6-0.4,0.9c-0.2,0.2-0.5,0.3-0.8,0.3c-0.4,0-0.7-0.1-0.9-0.4c-0.2-0.2-0.4-0.5-0.4-0.9
			V44.6z"/>
	</g>
	<g id="XMLID_41_">
		<path id="XMLID_42_" class="st3" d="M15.8,48.2l0,8.7c0,0.3-0.1,0.6-0.4,0.9c-0.2,0.2-0.5,0.3-0.9,0.3c-0.3,0-0.6-0.1-0.9-0.3
			c-0.2-0.2-0.4-0.5-0.4-0.8v-8.7c0-0.3,0.2-0.6,0.4-0.8c0.2-0.2,0.5-0.4,0.9-0.4c0.3,0,0.6,0.1,0.9,0.3
			C15.6,47.6,15.7,47.9,15.8,48.2z M16.4,47.7c0.1-0.1,0.3-0.2,0.5-0.3c0.2-0.1,0.4-0.2,0.7-0.2h0c0.1,0,0.2,0,0.3,0
			c0.3,0,0.5,0.1,0.7,0.2s0.3,0.3,0.4,0.5l0,0c0.1,0.2,0.1,0.3,0.1,0.5c0,0.3-0.1,0.6-0.3,0.8c-0.2,0.2-0.5,0.4-0.8,0.4
			c-0.7,0.1-1.2,0.3-1.6,0.7V47.7z"/>
		<path id="XMLID_45_" class="st3" d="M21.8,52.6c0,0.4,0.1,0.8,0.2,1.2c0.1,0.4,0.3,0.7,0.6,1c0.3,0.3,0.5,0.5,0.9,0.7
			c0.3,0.2,0.7,0.3,1.1,0.3v2.3c-0.9,0-1.6-0.2-2.3-0.6c-0.7-0.3-1.2-0.8-1.7-1.3c-0.4-0.5-0.8-1.1-1-1.7c-0.2-0.6-0.3-1.3-0.3-2
			c0-0.6,0.1-1.3,0.3-1.9s0.6-1.2,1-1.7c0.4-0.5,1-0.9,1.7-1.3c0.7-0.3,1.4-0.5,2.3-0.6v2.3c-0.4,0-0.8,0.1-1.1,0.3
			c-0.3,0.2-0.6,0.4-0.9,0.7c-0.3,0.3-0.4,0.6-0.6,1C21.8,51.7,21.8,52.1,21.8,52.6z M25.1,55.8c0.4,0,0.8-0.1,1.1-0.3
			c0.3-0.2,0.6-0.4,0.9-0.7c0.2-0.3,0.4-0.6,0.6-1c0.1-0.4,0.2-0.8,0.2-1.2c0-0.4-0.1-0.8-0.2-1.2c-0.1-0.4-0.3-0.7-0.6-1
			c-0.2-0.3-0.5-0.5-0.9-0.7c-0.3-0.2-0.7-0.3-1.1-0.3v-2.3c0.9,0,1.6,0.2,2.3,0.6s1.2,0.8,1.7,1.3c0.4,0.5,0.8,1.1,1,1.7
			c0.2,0.6,0.3,1.3,0.3,1.9c0,0.7-0.1,1.3-0.3,2c-0.2,0.6-0.6,1.2-1,1.7c-0.4,0.5-1,0.9-1.7,1.3c-0.7,0.3-1.4,0.5-2.3,0.6V55.8z"/>
		<path id="XMLID_48_" class="st3" d="M33.6,52.6c0,0.4,0.1,0.8,0.2,1.2c0.1,0.4,0.3,0.7,0.6,1c0.3,0.3,0.5,0.5,0.9,0.7
			c0.3,0.2,0.7,0.3,1.1,0.3v2.3c-0.9,0-1.6-0.2-2.3-0.6c-0.7-0.3-1.2-0.8-1.7-1.3c-0.4-0.5-0.8-1.1-1-1.7c-0.2-0.6-0.3-1.3-0.3-2
			c0-0.6,0.1-1.3,0.3-1.9s0.6-1.2,1-1.7c0.4-0.5,1-0.9,1.7-1.3c0.7-0.3,1.4-0.5,2.3-0.6v2.3c-0.4,0-0.8,0.1-1.1,0.3
			c-0.3,0.2-0.6,0.4-0.9,0.7c-0.3,0.3-0.4,0.6-0.6,1C33.7,51.7,33.6,52.1,33.6,52.6z M37,55.8c0.4,0,0.8-0.1,1.1-0.3
			c0.3-0.2,0.6-0.4,0.9-0.7c0.2-0.3,0.4-0.6,0.6-1c0.1-0.4,0.2-0.8,0.2-1.2c0-0.4-0.1-0.8-0.2-1.2c-0.1-0.4-0.3-0.7-0.6-1
			c-0.2-0.3-0.5-0.5-0.9-0.7c-0.3-0.2-0.7-0.3-1.1-0.3v-2.3c0.9,0,1.6,0.2,2.3,0.6s1.2,0.8,1.7,1.3c0.4,0.5,0.8,1.1,1,1.7
			c0.2,0.6,0.3,1.3,0.3,1.9c0,0.7-0.1,1.3-0.3,2c-0.2,0.6-0.6,1.2-1,1.7c-0.4,0.5-1,0.9-1.7,1.3c-0.7,0.3-1.4,0.5-2.3,0.6V55.8z"/>
		<path id="XMLID_51_" class="st3" d="M46,48.2v8.6v0.1c0,0.3-0.1,0.6-0.4,0.9c-0.2,0.2-0.5,0.3-0.9,0.3c-0.3,0-0.6-0.1-0.9-0.3
			c-0.2-0.2-0.4-0.5-0.4-0.9v-8.7c0-0.3,0.2-0.6,0.4-0.9c0.2-0.2,0.5-0.3,0.9-0.3c0.3,0,0.6,0.1,0.8,0.3C45.8,47.6,46,47.9,46,48.2z
			 M50.2,56.8V52c0-0.3,0-0.6-0.1-0.9c-0.1-0.3-0.2-0.6-0.3-0.9c-0.1-0.3-0.3-0.5-0.6-0.6c-0.3-0.2-0.6-0.3-1.1-0.3
			c-0.4,0-0.7,0.1-0.9,0.2c-0.3,0.1-0.5,0.3-0.6,0.5v-2.2c0.3-0.2,0.6-0.4,1-0.5c0.4-0.2,0.8-0.2,1.3-0.2c0.3,0,0.5,0,0.9,0.1
			c0.3,0.1,0.6,0.2,0.9,0.3c0.3,0.2,0.6,0.4,0.8,0.6c0.3,0.3,0.5,0.6,0.6,1c0.2-0.3,0.3-0.5,0.6-0.8c0.2-0.2,0.5-0.5,0.8-0.6
			c0.3-0.2,0.6-0.3,1-0.4c0.3-0.1,0.7-0.2,1.2-0.2c0.4,0,0.9,0.1,1.4,0.2c0.5,0.1,1,0.4,1.3,0.8c0.2,0.3,0.4,0.5,0.6,0.7
			c0.2,0.2,0.3,0.5,0.3,0.8s0.1,0.7,0.2,1c0,0.4,0,0.8,0,1.4v4.8c0,0.3-0.1,0.6-0.4,0.9c-0.2,0.2-0.5,0.4-0.9,0.4
			c-0.4,0-0.7-0.1-0.9-0.4c-0.2-0.3-0.4-0.5-0.4-0.9v-4.7c0-0.3,0-0.6-0.1-1c0-0.3-0.1-0.6-0.3-0.9c-0.1-0.3-0.3-0.5-0.6-0.7
			c-0.3-0.2-0.6-0.3-1.1-0.3c-0.4,0-0.8,0.1-1.1,0.2c-0.3,0.2-0.5,0.4-0.7,0.6c-0.2,0.3-0.3,0.5-0.3,0.9c-0.1,0.3-0.1,0.6-0.1,1v4.7
			c0,0.4-0.1,0.7-0.3,0.9c-0.2,0.3-0.5,0.4-0.9,0.4c-0.3,0-0.6-0.1-0.9-0.4C50.3,57.5,50.2,57.2,50.2,56.8z"/>
	</g>
	<g id="XMLID_73_">
		<path id="XMLID_11_" class="st0" d="M29.5,23.3c0.4,0.4,0.8,0.7,1.2,1.1c1.4,1.1,3.1,2,4.9,2.6c2,0.7,4,1,6.2,1
			c1.6,0,3.3-0.2,4.8-0.6c0,0,1.9-0.4,3.6-1.3c1.7-0.9,3.1-2.1,3.3-2.3c1.2-1.1,2.1-2.2,2.7-3.5c0.6-1.3,0.9-2.6,0.9-4
			c0-3-1.5-5.8-4.3-8c-1.4-1.1-3.1-2-4.9-2.6c-2-0.7-4-1-6.2-1c-2.1,0-4.2,0.3-6.2,1c-1.9,0.6-3.5,1.5-4.9,2.6
			c-1.8,1.5-3.1,3.2-3.8,5.1c1.9,2,3,4.5,3,7.1C29.9,21.5,29.8,22.4,29.5,23.3z"/>
		<path id="XMLID_10_" class="st0" d="M27.1,19.7c-0.1-0.7-0.3-1.4-0.6-2C26.7,18.4,26.9,19,27.1,19.7z"/>
		<path id="XMLID_9_" class="st0" d="M23.9,14.3C23.9,14.3,23.8,14.3,23.9,14.3c-1.2-0.9-2.5-1.6-4-2.1c-1.6-0.5-3.2-0.8-4.9-0.8
			c-1.7,0-3.4,0.3-4.9,0.8c-1.5,0.5-2.8,1.2-3.9,2.1C4,16,2.8,18.2,2.8,20.5c0,1.1,0.2,2.1,0.7,3.1c0.5,1,1.2,1.9,2.1,2.8
			c0.1,0.1,1.3,1.2,2.5,1.8c1.4,0.7,3,1,3,1c1.2,0.3,2.5,0.5,3.8,0.5c1.7,0,3.4-0.3,4.9-0.8c1.5-0.5,2.8-1.2,3.9-2.1
			c1.1-0.9,1.9-1.9,2.5-2.9c-1.7-2.2-2.6-4.7-2.6-7.5C23.7,15.6,23.8,15,23.9,14.3z"/>
		<path id="XMLID_8_" class="st1" d="M41.8,1.9c-7.9,0-14.6,4-17.1,9.6c0.8,0.6,1.6,1.2,2.2,1.9c0.7-1.9,1.9-3.6,3.8-5.1
			c1.4-1.1,3.1-2,4.9-2.6c2-0.7,4-1,6.2-1c2.1,0,4.2,0.3,6.2,1c1.9,0.6,3.5,1.5,4.9,2.6c2.8,2.2,4.3,5,4.3,8c0,1.4-0.3,2.7-0.9,4
			c-0.6,1.3-1.5,2.5-2.7,3.5c-0.2,0.2-1.6,1.4-3.3,2.3c-1.6,0.8-3.6,1.3-3.6,1.3c-1.5,0.4-3.2,0.6-4.8,0.6c-2.1,0-4.2-0.3-6.2-1
			c-1.9-0.6-3.5-1.5-4.9-2.6c-0.4-0.3-0.8-0.7-1.2-1.1c-0.3,0.9-0.7,1.8-1.2,2.6c3.3,3,8.2,4.8,13.6,4.8c1.9,0,3.8-0.2,5.5-0.7l0,10
			c0,0,7.2-13.4,8.1-14.2c2.8-2.5,4.6-5.9,4.6-9.6C60,8.4,51.9,1.9,41.8,1.9z"/>
		<path id="XMLID_7_" class="st1" d="M23.9,14.3c-0.1,0.7-0.2,1.4-0.2,2.1c0,2.7,1,5.3,2.6,7.5c0.6-1.1,0.8-2.2,0.8-3.3
			c0-0.3,0-0.5,0-0.8c-0.3-0.7-0.5-1.3-0.6-2C26,16.4,25.1,15.3,23.9,14.3z"/>
		<path id="XMLID_6_" class="st2" d="M26.6,17.7c0.3,0.7,0.5,1.3,0.6,2c0.5,1.3,1.3,2.5,2.4,3.6c0.3-0.9,0.4-1.8,0.4-2.8
			c0-2.7-1.1-5.1-3-7.1c-0.3,1-0.5,2-0.5,3C26.5,16.8,26.5,17.2,26.6,17.7z"/>
		<path id="XMLID_5_" class="st2" d="M26.3,23.8c-0.6,1.1-1.4,2.1-2.5,2.9c-1.1,0.9-2.4,1.6-3.9,2.1c-1.6,0.5-3.2,0.8-4.9,0.8
			c-1.3,0-2.6-0.2-3.8-0.5c0,0-1.6-0.3-3-1c-1.2-0.6-2.3-1.7-2.5-1.8c-0.9-0.8-1.6-1.8-2.1-2.8c-0.5-1-0.7-2-0.7-3.1
			c0-2.3,1.2-4.5,3.3-6.2c1.1-0.9,2.4-1.6,3.9-2.1c1.6-0.5,3.2-0.8,4.9-0.8c1.7,0,3.4,0.3,4.9,0.8c1.5,0.5,2.8,1.2,3.9,2.1
			c0,0,0,0,0,0c0.2-1,0.5-1.9,0.9-2.8c-2.6-1.8-6-2.9-9.8-2.9c-8.3,0-15,5.3-15,11.9c0,3,1.4,5.8,3.8,7.9c0.8,0.7,6.7,11.7,6.7,11.7
			l0-8.2c1.4,0.4,2.9,0.6,4.5,0.6c5.8,0,10.8-2.6,13.3-6.5C27.6,25.3,26.9,24.6,26.3,23.8z"/>
		<path id="XMLID_4_" class="st2" d="M27.1,19.7c0,0.3,0,0.5,0,0.8c0,1.1-0.3,2.3-0.8,3.3c0.6,0.8,1.2,1.5,2,2.1
			c0.5-0.8,1-1.7,1.2-2.6C28.5,22.2,27.6,21,27.1,19.7z"/>
		<path id="XMLID_3_" class="st1" d="M26.6,17.7c-0.1-0.4-0.1-0.9-0.1-1.3c0-1,0.2-2,0.5-3c-0.7-0.7-1.4-1.3-2.2-1.9
			c-0.4,0.9-0.7,1.8-0.9,2.8C25.1,15.3,26,16.4,26.6,17.7z"/>
	</g>
	<g id="XMLID_37_">
		<path id="XMLID_38_" class="st3" d="M3.1,52.5c0,0.4,0.1,0.8,0.2,1.2c0.1,0.4,0.3,0.7,0.6,1c0.3,0.3,0.6,0.5,1,0.7
			c0.4,0.2,0.9,0.3,1.4,0.3c0.5,0,1-0.1,1.4-0.3s0.7-0.5,1-0.8v2.5c-0.3,0.3-0.7,0.5-1.2,0.7c-0.5,0.2-1,0.3-1.5,0.3
			c-0.7,0-1.4-0.1-2-0.4c-0.6-0.3-1.2-0.6-1.7-1.1c-0.5-0.5-0.9-1.1-1.2-1.8c-0.3-0.7-0.4-1.5-0.4-2.4c0-0.9,0.2-1.7,0.5-2.4
			c0.3-0.7,0.7-1.3,1.2-1.7c0.5-0.5,1.1-0.8,1.7-1C4.6,47.1,5.2,47,5.8,47c0.4,0,0.8,0.1,1.4,0.2s1,0.4,1.5,0.8v2.5
			c-0.3-0.3-0.6-0.6-1-0.8c-0.4-0.2-0.9-0.3-1.4-0.3c-0.5,0-0.9,0.1-1.3,0.3c-0.4,0.2-0.7,0.4-1,0.7s-0.5,0.6-0.6,1
			C3.2,51.7,3.1,52.1,3.1,52.5z M9.3,44.6c0-0.3,0.1-0.6,0.4-0.9c0.2-0.2,0.5-0.4,0.9-0.4c0.3,0,0.6,0.1,0.9,0.3
			c0.2,0.2,0.4,0.5,0.4,0.9v12.3c0,0.4-0.2,0.6-0.4,0.9c-0.2,0.2-0.5,0.3-0.8,0.3c-0.4,0-0.7-0.1-0.9-0.4c-0.2-0.2-0.4-0.5-0.4-0.9
			V44.6z"/>
	</g>
	<g id="XMLID_24_">
		<path id="XMLID_25_" class="st3" d="M15.8,48.2l0,8.7c0,0.3-0.1,0.6-0.4,0.9c-0.2,0.2-0.5,0.3-0.9,0.3c-0.3,0-0.6-0.1-0.9-0.3
			c-0.2-0.2-0.4-0.5-0.4-0.8v-8.7c0-0.3,0.2-0.6,0.4-0.8c0.2-0.2,0.5-0.4,0.9-0.4c0.3,0,0.6,0.1,0.9,0.3
			C15.6,47.6,15.7,47.9,15.8,48.2z M16.4,47.7c0.1-0.1,0.3-0.2,0.5-0.3c0.2-0.1,0.4-0.2,0.7-0.2h0c0.1,0,0.2,0,0.3,0
			c0.3,0,0.5,0.1,0.7,0.2s0.3,0.3,0.4,0.5l0,0c0.1,0.2,0.1,0.3,0.1,0.5c0,0.3-0.1,0.6-0.3,0.8c-0.2,0.2-0.5,0.4-0.8,0.4
			c-0.7,0.1-1.2,0.3-1.6,0.7V47.7z"/>
		<path id="XMLID_28_" class="st3" d="M21.8,52.6c0,0.4,0.1,0.8,0.2,1.2c0.1,0.4,0.3,0.7,0.6,1c0.3,0.3,0.5,0.5,0.9,0.7
			c0.3,0.2,0.7,0.3,1.1,0.3v2.3c-0.9,0-1.6-0.2-2.3-0.6c-0.7-0.3-1.2-0.8-1.7-1.3c-0.4-0.5-0.8-1.1-1-1.7c-0.2-0.6-0.3-1.3-0.3-2
			c0-0.6,0.1-1.3,0.3-1.9s0.6-1.2,1-1.7c0.4-0.5,1-0.9,1.7-1.3c0.7-0.3,1.4-0.5,2.3-0.6v2.3c-0.4,0-0.8,0.1-1.1,0.3
			c-0.3,0.2-0.6,0.4-0.9,0.7c-0.3,0.3-0.4,0.6-0.6,1C21.8,51.7,21.8,52.1,21.8,52.6z M25.1,55.8c0.4,0,0.8-0.1,1.1-0.3
			c0.3-0.2,0.6-0.4,0.9-0.7c0.2-0.3,0.4-0.6,0.6-1c0.1-0.4,0.2-0.8,0.2-1.2c0-0.4-0.1-0.8-0.2-1.2c-0.1-0.4-0.3-0.7-0.6-1
			c-0.2-0.3-0.5-0.5-0.9-0.7c-0.3-0.2-0.7-0.3-1.1-0.3v-2.3c0.9,0,1.6,0.2,2.3,0.6s1.2,0.8,1.7,1.3c0.4,0.5,0.8,1.1,1,1.7
			c0.2,0.6,0.3,1.3,0.3,1.9c0,0.7-0.1,1.3-0.3,2c-0.2,0.6-0.6,1.2-1,1.7c-0.4,0.5-1,0.9-1.7,1.3c-0.7,0.3-1.4,0.5-2.3,0.6V55.8z"/>
		<path id="XMLID_31_" class="st3" d="M33.6,52.6c0,0.4,0.1,0.8,0.2,1.2c0.1,0.4,0.3,0.7,0.6,1c0.3,0.3,0.5,0.5,0.9,0.7
			c0.3,0.2,0.7,0.3,1.1,0.3v2.3c-0.9,0-1.6-0.2-2.3-0.6c-0.7-0.3-1.2-0.8-1.7-1.3c-0.4-0.5-0.8-1.1-1-1.7c-0.2-0.6-0.3-1.3-0.3-2
			c0-0.6,0.1-1.3,0.3-1.9s0.6-1.2,1-1.7c0.4-0.5,1-0.9,1.7-1.3c0.7-0.3,1.4-0.5,2.3-0.6v2.3c-0.4,0-0.8,0.1-1.1,0.3
			c-0.3,0.2-0.6,0.4-0.9,0.7c-0.3,0.3-0.4,0.6-0.6,1C33.7,51.7,33.6,52.1,33.6,52.6z M37,55.8c0.4,0,0.8-0.1,1.1-0.3
			c0.3-0.2,0.6-0.4,0.9-0.7c0.2-0.3,0.4-0.6,0.6-1c0.1-0.4,0.2-0.8,0.2-1.2c0-0.4-0.1-0.8-0.2-1.2c-0.1-0.4-0.3-0.7-0.6-1
			c-0.2-0.3-0.5-0.5-0.9-0.7c-0.3-0.2-0.7-0.3-1.1-0.3v-2.3c0.9,0,1.6,0.2,2.3,0.6s1.2,0.8,1.7,1.3c0.4,0.5,0.8,1.1,1,1.7
			c0.2,0.6,0.3,1.3,0.3,1.9c0,0.7-0.1,1.3-0.3,2c-0.2,0.6-0.6,1.2-1,1.7c-0.4,0.5-1,0.9-1.7,1.3c-0.7,0.3-1.4,0.5-2.3,0.6V55.8z"/>
		<path id="XMLID_34_" class="st3" d="M46,48.2v8.6v0.1c0,0.3-0.1,0.6-0.4,0.9c-0.2,0.2-0.5,0.3-0.9,0.3c-0.3,0-0.6-0.1-0.9-0.3
			c-0.2-0.2-0.4-0.5-0.4-0.9v-8.7c0-0.3,0.2-0.6,0.4-0.9c0.2-0.2,0.5-0.3,0.9-0.3c0.3,0,0.6,0.1,0.8,0.3C45.8,47.6,46,47.9,46,48.2z
			 M50.2,56.8V52c0-0.3,0-0.6-0.1-0.9c-0.1-0.3-0.2-0.6-0.3-0.9c-0.1-0.3-0.3-0.5-0.6-0.6c-0.3-0.2-0.6-0.3-1.1-0.3
			c-0.4,0-0.7,0.1-0.9,0.2c-0.3,0.1-0.5,0.3-0.6,0.5v-2.2c0.3-0.2,0.6-0.4,1-0.5c0.4-0.2,0.8-0.2,1.3-0.2c0.3,0,0.5,0,0.9,0.1
			c0.3,0.1,0.6,0.2,0.9,0.3c0.3,0.2,0.6,0.4,0.8,0.6c0.3,0.3,0.5,0.6,0.6,1c0.2-0.3,0.3-0.5,0.6-0.8c0.2-0.2,0.5-0.5,0.8-0.6
			c0.3-0.2,0.6-0.3,1-0.4c0.3-0.1,0.7-0.2,1.2-0.2c0.4,0,0.9,0.1,1.4,0.2c0.5,0.1,1,0.4,1.3,0.8c0.2,0.3,0.4,0.5,0.6,0.7
			c0.2,0.2,0.3,0.5,0.3,0.8s0.1,0.7,0.2,1c0,0.4,0,0.8,0,1.4v4.8c0,0.3-0.1,0.6-0.4,0.9c-0.2,0.2-0.5,0.4-0.9,0.4
			c-0.4,0-0.7-0.1-0.9-0.4c-0.2-0.3-0.4-0.5-0.4-0.9v-4.7c0-0.3,0-0.6-0.1-1c0-0.3-0.1-0.6-0.3-0.9c-0.1-0.3-0.3-0.5-0.6-0.7
			c-0.3-0.2-0.6-0.3-1.1-0.3c-0.4,0-0.8,0.1-1.1,0.2c-0.3,0.2-0.5,0.4-0.7,0.6c-0.2,0.3-0.3,0.5-0.3,0.9c-0.1,0.3-0.1,0.6-0.1,1v4.7
			c0,0.4-0.1,0.7-0.3,0.9c-0.2,0.3-0.5,0.4-0.9,0.4c-0.3,0-0.6-0.1-0.9-0.4C50.3,57.5,50.2,57.2,50.2,56.8z"/>
	</g>
</g>
</svg>
